<svg width="26" height="27" viewBox="0 0 26 27" fill="none" xmlns="http://www.w3.org/2000/svg">
<path d="M14.8113 16.9033V23.3239C14.8113 24.4782 13.8989 25.414 12.7734 25.414H2.78787C1.66241 25.414 0.75 24.4782 0.75 23.3239V13.0823C0.75 11.928 1.66241 10.9922 2.78787 10.9922H9.04795" stroke="white" stroke-width="1.5" stroke-miterlimit="10" stroke-linecap="round" stroke-linejoin="round"/>
<path d="M6.65983 0.75H3.80681C2.11858 0.75 0.75 2.15367 0.75 3.88519V6.81136" stroke="white" stroke-width="1.5" stroke-miterlimit="10" stroke-linecap="round" stroke-linejoin="round"/>
<path d="M10.7356 0.75H14.8113" stroke="white" stroke-width="1.5" stroke-miterlimit="10" stroke-linecap="round" stroke-linejoin="round"/>
<path d="M18.887 0.75H21.74C23.4282 0.75 24.7968 2.15367 24.7968 3.88519V6.81136" stroke="white" stroke-width="1.5" stroke-miterlimit="10" stroke-linecap="round" stroke-linejoin="round"/>
<path d="M24.7968 19.3516V22.2777C24.7968 24.0092 23.4282 25.4129 21.74 25.4129H18.887" stroke="white" stroke-width="1.5" stroke-miterlimit="10" stroke-linecap="round" stroke-linejoin="round"/>
<path d="M24.7969 10.9922V15.1724" stroke="white" stroke-width="1.5" stroke-miterlimit="10" stroke-linecap="round" stroke-linejoin="round"/>
<path d="M7.25659 18.7404L20.1241 5.54297" stroke="white" stroke-width="1.5" stroke-miterlimit="10" stroke-linecap="round" stroke-linejoin="round"/>
<path d="M6.65991 16.2168V19.352H9.71672" stroke="white" stroke-width="1.5" stroke-miterlimit="10" stroke-linecap="round" stroke-linejoin="round"/>
<path d="M17.6643 4.92969H20.7211V8.06487" stroke="white" stroke-width="1.5" stroke-miterlimit="10" stroke-linecap="round" stroke-linejoin="round"/>
</svg>
